<svg class="fusion-standard-logo replaced-svg svg-replaced-0" fill="none" viewBox="0 0 1920 674" xmlns="http://www.w3.org/2000/svg">
<g clip-path="url(#clip0_1_2)">
<path d="M954.2 296C951.7 260.2 935.2 226.9 908.3 203.2C882 178.8 847.3 165.5 811.5 166.3C791.9 165.9 772.5 169.8 754.6 177.6C736.7 185.4 720.6 197 707.6 211.6V19.1C707.6 6.3 701.2 0 688.5 0C675.8 0 670.1 6.3 670.1 19.1V432.5C670.1 445.2 676.4 451.6 688.5 451.6C700.5 451.6 707.6 445.2 707.6 432.5V296C710.1 276.6 718 258.2 730.4 243C742.7 227.8 759.1 216.3 777.5 209.8C796 203.3 815.9 202.1 835 206.3C854.1 210.5 871.7 219.9 885.7 233.6C895.8 242.9 903.7 254.1 909.1 266.7C914.5 279.3 917.1 292.9 916.8 306.5V432.5C916.8 444.6 923.2 450.9 935.9 450.9C938.4 451.2 940.9 450.9 943.3 450.1C945.7 449.3 947.8 447.9 949.6 446.2C951.4 444.4 952.7 442.3 953.5 439.9C954.3 437.5 954.6 435 954.3 432.5V296H954.2Z" fill="#EC1562"></path>
<path d="M352.9 309.5C352.6 295.7 355.2 282 360.4 269.2C365.6 256.4 373.4 244.8 383.3 235.2C393 225.2 404.7 217.3 417.6 211.9C430.5 206.5 444.3 203.9 458.2 204C486.1 204.2 512.7 215.4 532.4 235.1C552.1 254.8 563.3 281.6 563.5 309.5C563.7 323.5 561 337.3 555.6 350.2C550.3 363.1 542.4 374.8 532.4 384.5C522.8 394.4 511.2 402.2 498.4 407.5C485.6 412.7 471.9 415.3 458.1 415C444.2 415.2 430.4 412.6 417.6 407.4C404.7 402.2 393 394.4 383.2 384.6C373.4 374.8 365.6 363 360.4 350.1C355.3 337.2 352.7 323.4 352.9 309.5ZM315.5 309.5C315.4 328.3 319.1 347 326.2 364.4C333.4 381.8 343.9 397.7 357.2 411C370.5 424.3 386.3 434.9 403.7 442C421.1 449.2 439.7 452.8 458.5 452.7C477.3 453.2 495.9 449.8 513.3 442.7C530.7 435.6 546.4 425 559.6 411.6C573.1 398.3 583.8 382.5 591 364.9C598.2 347.4 601.7 328.5 601.3 309.6C601.4 290.8 597.7 272.1 590.6 254.7C583.5 237.3 572.9 221.5 559.6 208.1C546.3 194.8 530.5 184.2 513.1 177.1C495.7 169.9 477.1 166.3 458.3 166.3C439.5 166.3 421 169.9 403.6 177.1C386.3 184.3 370.5 194.8 357.3 208.1C344 221.4 333.5 237.2 326.4 254.6C319.1 272.1 315.5 290.7 315.5 309.5Z" fill="#039EC3"></path>
<path d="M-2.26721e-05 309.5C-0.400023 328.4 2.99998 347.2 10.1 364.8C17.1 382.4 27.7 398.3 41 411.7C54.4 425.1 70.3 435.6 87.8 442.7C105.3 449.8 124.1 453.2 143 452.8C163.5 453.2 183.8 448.9 202.4 440.3C221 431.7 237.4 419 250.4 403.2C253.4 399.6 255.4 395.2 255.9 390.5C255.9 381.3 244.9 371.4 236.1 371.4C233.3 371.6 230.7 372.4 228.2 373.7C225.8 375 223.6 376.8 221.9 379C212.2 390.6 200.1 399.8 186.4 406.1C172.7 412.4 157.8 415.5 142.7 415.2C128.8 415.4 115 412.8 102.2 407.6C89.3 402.4 77.6 394.6 67.8 384.8C58 375 50.2 363.2 45 350.4C39.8 337.5 37.2 323.7 37.4 309.8C37.1 296 39.7 282.2 45 269.4C50.3 256.6 58.1 245 68 235.4C77.7 225.4 89.4 217.5 102.2 212.1C115.1 206.7 128.9 204.1 142.8 204.2C157.3 203.9 171.7 206.8 185 212.7C198.3 218.6 210.2 227.2 219.8 238.2C221.3 240.3 223.4 242.1 225.7 243.3C228 244.5 230.6 245.2 233.2 245.3C238.2 244.5 242.7 242.1 246.3 238.6C249.9 235 252.2 230.5 253 225.5C252.7 220.7 250.7 216.2 247.5 212.8C234.4 198.1 218.3 186.3 200.3 178.3C182.3 170.4 162.7 166.4 143 166.7C124.2 166.4 105.5 170 88.2 177.2C70.8 184 55.1 194.7 42 208.2C28.5 221.3 17.9 237.1 10.7 254.5C3.49998 271.9 -2.26796e-05 290.6 0.299977 309.5" fill="#039EC3"></path>
<path d="M1107.5 217.4C1132.3 204.9 1160.9 202.6 1187.4 211C1228.4 223.7 1252.4 251.3 1259.4 293.2H1052.5C1054.9 277.1 1061.1 261.7 1070.7 248.5C1080.3 235.4 1092.9 224.7 1107.5 217.4ZM1033.2 237.5C1019.7 260 1012.6 285.7 1012.7 311.9C1012.4 330.7 1016 349.4 1023.1 366.8C1030.3 384.2 1040.9 400 1054.4 413.1C1067.6 426.5 1083.3 437.1 1100.7 444.2C1118.1 451.4 1136.7 455 1155.4 454.8C1182.2 455 1208.5 447.3 1231 432.8C1233.8 431.4 1236.1 429.2 1237.9 426.6C1239.6 424 1240.7 421 1240.9 417.9C1240.9 408.7 1231.7 396.7 1223.2 396.7C1218.9 396.9 1214.7 398.4 1211.2 400.9C1194.5 411.5 1175.1 417.2 1155.3 417.4C1112.2 417.4 1081 398.3 1061.8 360C1057.3 350.8 1053.9 341.1 1051.9 331H1279.5C1291.5 331 1297.9 324.6 1297.9 311.9C1298.2 281.5 1288.8 251.8 1271 227.1C1253.2 202.5 1227.9 184.3 1198.9 175.2C1184.6 170.8 1169.8 168.7 1154.9 168.8C1101.2 168.8 1060.2 191.5 1032.6 237.5" fill="#EC1562"></path>
<path d="M1672.1 217.4C1696.9 204.9 1725.5 202.6 1752 211C1793 223.7 1817 251.3 1824.1 293.2H1617C1619.4 277.1 1625.6 261.7 1635.2 248.5C1644.8 235.3 1657.4 224.6 1672 217.4H1672.1ZM1598 237.5C1584.5 260 1577.4 285.7 1577.5 311.9C1577.2 330.7 1580.8 349.3 1587.9 366.7C1595 384.1 1605.6 399.8 1619 412.9C1632.2 426.3 1648 436.9 1665.4 444.1C1682.8 451.3 1701.4 454.9 1720.2 454.7C1747 454.8 1773.3 447.2 1795.8 432.7C1798.6 431.3 1800.9 429.1 1802.7 426.5C1804.4 423.9 1805.5 420.9 1805.7 417.8C1805.7 408.6 1796.5 396.6 1788 396.6C1783.7 396.8 1779.5 398.3 1776 400.8C1759.3 411.4 1740 417.1 1720.2 417.3C1677.1 417.3 1645.9 398.2 1626.7 359.9C1622.1 350.7 1618.8 341 1616.8 330.9H1844.5C1856.5 330.9 1862.9 324.5 1862.9 311.8C1863.2 281.4 1853.8 251.7 1836 227C1818.2 202.4 1792.9 184.2 1763.9 175.1C1749.6 170.7 1734.8 168.6 1719.9 168.7C1666.2 168.7 1625.2 191.4 1597.6 237.4" fill="#EC1562"></path>
<path d="M1582.4 178.3L1488.9 133.1L1486.3 131.8L1489.3 166.5C1455.2 171.1 1424 188.1 1401.6 214.2C1379.2 240.3 1367 273.7 1367.4 308.1V434.2C1367.1 436.7 1367.4 439.2 1368.2 441.6C1369 444 1370.4 446.1 1372.1 447.9C1373.9 449.7 1376 451 1378.4 451.8C1380.8 452.6 1383.3 452.9 1385.7 452.6C1398.4 452.6 1404.8 446.2 1404.8 434.2V308.1C1404.5 294.3 1407.1 280.5 1412.3 267.7C1417.5 254.9 1425.3 243.3 1435.2 233.6C1450.6 217.8 1470.7 207.4 1492.5 203.9L1495.9 243L1582.4 178.3Z" fill="#EC1562"></path>
<path d="M1863 673.4V567.4H1839.3V610.5H1802.2V567.4H1778.5V673.4H1802.2V633.3H1839.5V673.4H1863ZM1644 589.2V567.2H1551.8V589.2H1586V673.4H1609.9V589.2H1644ZM1433.3 673.4V650.9H1378.3V567.5H1354.8V673.5H1433.3V673.4ZM1179.9 632.1H1154L1167 599L1179.9 632.1ZM1218.8 673.4L1176.9 567.1H1158.8L1114.8 673.4H1137.9L1146.1 653.6H1188.1L1195.4 673.4H1218.8ZM980.8 673.4V651.4H928.6V631.3H971.3V610.1H928.5C928.5 603 928.5 596 928.5 589H979V567H905.1V673L980.8 673.4ZM764.1 673.4V567.4H740.4V610.5H703.3V567.4H679.5V673.4H703.2V633.3H740.4V673.4H764.1Z" fill="#6D6F72"></path>
<path d="M1873.6 132.8C1878.9 127.5 1885.3 124.8 1892.8 124.8C1900.3 124.8 1906.7 127.5 1912 132.8C1917.3 138.1 1920 144.5 1920 152C1920 159.5 1917.3 165.9 1912 171.2C1906.7 176.5 1900.3 179.2 1892.8 179.2C1885.3 179.2 1878.9 176.5 1873.6 171.2C1868.3 165.9 1865.6 159.5 1865.6 152C1865.6 144.5 1868.3 138.1 1873.6 132.8ZM1892.8 176.8C1899.6 176.8 1905.4 174.4 1910.1 169.6C1914.9 164.7 1917.3 158.9 1917.3 152C1917.3 145.1 1914.9 139.3 1910.1 134.5C1905.3 129.6 1899.6 127.2 1892.8 127.2C1886 127.2 1880.3 129.6 1875.5 134.5C1870.7 139.3 1868.3 145.1 1868.3 152C1868.3 158.8 1870.7 164.6 1875.5 169.5C1880.3 174.4 1886.1 176.8 1892.8 176.8ZM1904.2 147.2C1904.2 151 1902.7 153.7 1899.8 155.5L1905.5 165.9H1898L1893.6 157.1H1890.2V165.9H1883.3V138.1H1893.6C1896.7 138.1 1899.3 139 1901.3 140.7C1903.2 142.5 1904.2 144.6 1904.2 147.2ZM1890.2 144.5V151.1H1893.2C1894.5 151.1 1895.5 150.8 1896.2 150.2C1897 149.6 1897.3 148.8 1897.3 147.8C1897.3 145.6 1895.9 144.5 1893.2 144.5H1890.2Z" fill="#6D6F72"></path>
</g>
<defs>
<clipPath id="clip0_1_2">
<rect fill="white" height="673.2" width="1920"></rect>
</clipPath>
</defs>
</svg>